# xmcd
#
# Track frame offsets: 
#        150
#        10202
#        22272
#        35117
#        47847
#        62740
#        75222
#        90435
#        109582
#        122562
#        135645
#        144037
#        159225
#        172455
#        186575
#        200607
#        219307
#        233657
#        250392
#        262112
#
# Disc length: 3730 seconds
#
# Revision: 0
# Processed by: cddbd v1.4PL0 Copyright (c) Steve Scherf et al.
# Submitted via: ExactAudioCopy v0.90a11
#
DISCID=190e9014
DTITLE=20 Exitos de los 60 y 70 - 20 Exitos de los 60 y 70
DYEAR=1900
DGENRE=
TTITLE0=Tu la Vas a Perder
TTITLE1=Tiempo Para Amar
TTITLE2=Solo para Tontos
TTITLE3=El Ultimo Beso
TTITLE4=Quiero Escribir tu Nombre
TTITLE5=Imaginame
TTITLE6=Matrimonio
TTITLE7=Volveras, Volvere
TTITLE8=La Vi Parada Ahi
TTITLE9=Vuelvete
TTITLE10=Molino al Viento
TTITLE11=Yo Tratare de Ayudarte
TTITLE12=Mi Pavita Zanahoria
TTITLE13=Quiero Ser Yo
TTITLE14=Arena Blanca
TTITLE15=Cuando el Amor Se Va
TTITLE16=Te Quiero Todavia
TTITLE17=Como Poder Olvidarte
TTITLE18=Hoy
TTITLE19=Estimada Flor
EXTD=
EXTT0=
EXTT1=
EXTT2=
EXTT3=
EXTT4=
EXTT5=
EXTT6=
EXTT7=
EXTT8=
EXTT9=
EXTT10=
EXTT11=
EXTT12=
EXTT13=
EXTT14=
EXTT15=
EXTT16=
EXTT17=
EXTT18=
EXTT19=
PLAYORDER=
